<svg xmlns="http://www.w3.org/2000/svg" xmlns:xlink="http://www.w3.org/1999/xlink" viewBox="0 0 2000 2000"><defs><style>.cls-1{isolation:isolate;}.cls-2,.cls-7,.cls-8{fill:#4f6466;}.cls-3{fill:none;}.cls-4{mix-blend-mode:multiply;fill:url(#linear-gradient);}.cls-5{fill:#fff;}.cls-6{fill:#22c7b8;}.cls-7,.cls-8{stroke:#4f6466;stroke-miterlimit:10;}.cls-7{stroke-width:2px;}</style><linearGradient id="linear-gradient" x1="716.45" y1="707.19" x2="719.19" y2="707.19" gradientUnits="userSpaceOnUse"><stop offset="0" stop-color="#ff02ff"/><stop offset="1" stop-color="#ff7a45"/></linearGradient></defs><g class="cls-1"><g id="Layer_1" data-name="Layer 1"><path class="cls-2" d="M1269.53,1014.25c-1.82-1.09-3.68-2.07-5.06-2.72a11.49,11.49,0,0,1-2-1.28,13.25,13.25,0,0,0-5-2.1c-44.1-10.74-83.34-2.42-117,28.87-17.15,15.93-27.29,20.63-46.93,21.86,31.63-26.19,47.71-61.56,60.29-98.91,8.92-26.5,17.87-52.82,36.73-74.36,3.43-3.91,2.33-7.66-1.61-10.24C1168,861.78,1147.28,848,1126.06,835c-8.74-5.36-12.94-3.69-15.11,6.15-5.89,26.62-11.9,53.3-15.9,80.26-6.27,42.12-10.83,84.49-16.32,126.73a69.6,69.6,0,0,1-6,20.86c1-14,1.89-28.1,2.93-42.14,4.52-60.39,9.19-120.77,20.9-180.32,1.7-8.66,4-17.22,6.19-25.76s5.32-10.31,13.24-6.27a170.09,170.09,0,0,1,21.17,13c23.74,17,47.26,34.19,71.58,51.83-3.32,3.82-5.73,6.52-8.08,9.29-12.34,14.54-19.81,31.61-26.22,49.37s-13.79,35.37-20.72,53a24.51,24.51,0,0,0-.77,2.79c.77.42,1.55.83,2.34,1.24,5.64-9.77,11.84-19.28,16.79-29.41,4.45-9.11,7.67-18.84,11.19-28.38,9-24.38,22.19-45.21,49.81-56.72-8-.75-11.5-3.8-15.78-7.23q-46.71-37.43-95.33-72.43c-18.79-13.55-40.43-18.15-64-16.69-50.63,3.12-101,8-150.27,20.47-12.82,3.24-25.43,7.35-38.14,11.06.17.64.34,1.29.51,1.92,14.33-3,28.62-6.09,43-8.86,47.65-9.22,95.41-17.59,144.21-16.83a97.39,97.39,0,0,1,19.15,1.81c10.84,2.35,15.42,9.61,14,20.59q-13,103.68-26,207.35c-1.81,14.24-7.11,19.47-20.75,21.14-83.5,10.23-166.78,10.54-249.67-5.67-1.31-.25-2.62-.57-3.94-.73-.47-.06-1,.27-2.14.63-.54,6.1-1.73,12.49-1.37,18.79.16,2.78,3,6.07,5.45,7.95,17.31,13.09,37.23,20,58.52,22.7,63.79,8,127.24,6.35,190-8.63,6.93-1.64,13.61-4.31,22.31-7.12-1.37,11.35-2.56,21.37-3.77,31.37-1-.06-1.94-.14-2.91-.22.52-7.34,1-14.68,1.54-22-.88-.17-1.76-.35-2.63-.54-.78,2.31-2,4.57-2.29,6.94-2.3,20.54-3.3,21.91-23.56,25.83-9.19,1.77-18.54,2.75-27.83,4a73.28,73.28,0,0,1-7.9,0c12.51-2.9,23.61-5.21,34.55-8.06,15.13-3.93,18.09-8.54,16.87-24.27-23.91,3.77-47.89,7.5-71.82,11.46-1.81.29-3.71,1.94-4.95,3.45-2.2,2.69-4.55,5.51-5.74,8.69-5,13.23-15,16.42-28.11,17-33.49,1.57-66.25-1.46-98.69-10.22-10.39-2.81-15.69-8-14.92-18.1.75-9.63-4.14-13.78-12-17-6.4-2.57-12.44-6-19.07-9.33-1.51,8.1-4.14,15.86,2.77,21.67,5.66,4.76,12.17,8.46,17.49,14.15-8.11-4.72-16.23-9.42-25.35-14.72-.12,6.78-.47,13.51-.51,20.19h0c-.08,10.33.6,20.52,4,30.48,2.92,8.43,10.69,13,18.88,14.89,18.76,4.28,37.62,8.46,56.66,11.12a858.64,858.64,0,0,0,142.69,8.09c9.9-.27,19.74-1.8,29.63-2.36,9.19-.53,15.24-5.72,18.42-13.48,4.51-11,7.8-22.54,12.71-33.91-1.31,13.32-2.6,26.64-4,41,8.34-3.49,17.29-6.68,25.74-10.9,10.76-5.38,21-11.79,31.7-17.33,5-2.59,6.49-6.12,6.57-11.52.28-20.51,2.87-40.71,12-59.35a67.08,67.08,0,0,1,11.83-17c12.48-12.82,28.93-11.22,39.09,3.48,9.72,14.11,10,30.15,8.6,46.41-.28,3.15-.79,6.27-1.38,11,5.27-2.55,9.93-5.25,15.1-7.62-3,3.28-11.05,11.87-18.62,19.1-.17.16-.35.31-.54.46-1.74,1.29-3.16,2.73-4.91,4,1.52-16.65,4.49-33.72,4.33-50.9-.08-8.39-4.32-17.6-9.07-24.86-4.95-7.57-13.06-7.16-19.17-.3a54.42,54.42,0,0,0-9.73,15.52c-8.62,21.49-12.13,43.81-8.77,66.92,1.31,9,3,14.47,7.41,20.38-4.17,3.18-6.1,8.72-11.72,11a77.39,77.39,0,0,1-16.24-4.33c-2.39-1-6-1.49-8.07-.36-49.29,27.3-102.59,31.8-157.48,29-49.59-2.49-98.85-7.17-147.55-17.08-26.95-5.48-39.19-19.9-38.95-47.56.23-27.33.72-54.67,1.78-82,.32-8.09,2.94-16.09,4.69-25,20.21,10.8,40.92,11.3,61.27,12.73,61.83,4.37,123.66,5.93,185.44-1,19.06-2.16,22.81-4.39,25.49-23.34,8.46-59.66,16.28-119.4,24.28-179.1a61.23,61.23,0,0,0,0-7.9c-10.28-1.65-25.88,8.88-27.62,18.63a5.28,5.28,0,0,0,.92,3.64c7,9.58,7.71,20.59,6.2,31.58-2.3,16.68-5.43,33.25-8.56,49.82a29.78,29.78,0,0,1-4.33,10.27c-3.86,6-9.11,6.41-14,1.23a34,34,0,0,1-6.32-9.23c-12.13-27.76-13.77-56-2.23-84.32,8.24-20.25,19.69-28.28,46.08-36.36-4.88-.68-9.84-2.21-14.67-1.89-27.75,1.83-55.66,2.8-83.17,6.56-32,4.38-63.85,10.84-95.55,17.46-11.1,2.31-21.56,7.73-31.89,12.92,61-18,123.33-25.49,188.68-29.14-23.11,25.66-28.86,54.17-26.59,84.76a101.42,101.42,0,0,0,5.45,25c4.7,13.84,13.33,24.38,29.76,28.1-3.72,20.69-7.11,41.2-11.22,61.58-1.68,8.37-8.71,10.53-16.5,11.38A894.89,894.89,0,0,1,871.91,1026c-24.81-1.12-49.54-4.7-74.17-8.1-10.89-1.5-10.64-2.53-9.15-13.12,6.06-43.26,12.81-86.39,25.15-128.4,3.36-11.5,7.65-22.71,11.78-34.82-16.44-.87-29.56,4.56-40.67,17.05,9.64,2.71,12.5,10.21,11.61,18.13-2,17.48-4.81,34.9-8.28,52.14-.69,3.42-5.47,7.77-8.92,8.33-2.57.41-7.41-3.92-8.88-7.21-10.4-23-12-46.7-1.29-70,9.23-20,26.79-29.08,47.71-32.52,4.76-.78,9.61-.87,14.39-1.54a17.2,17.2,0,0,0,5.81-2c7.6-4.2,14.69-9.71,22.72-12.69,56.59-21,115.33-32.51,175.21-38.88,22.56-2.41,45.09-3.76,66.77,4,10.21,3.66,20.54,8.44,29.09,15,42.57,32.5,84.58,65.77,126.8,98.76,2,1.58,4.05,3.14,7.11,5.5l22.21,16.78C1288.65,926.94,1287.76,978.58,1269.53,1014.25Z"/><path class="cls-2" d="M1265.19,1006.27c0-30.65,0-59.56-.09-88.46a6.6,6.6,0,0,0-2.08-4.71c-9.34-7-32.32-6.43-41.91,1.4-20.25,16.53-29.59,39.8-39.32,63.72C1210.84,984.26,1238.8,990.31,1265.19,1006.27Z"/><path class="cls-2" d="M1022.8,969.71l-1.4-.33a46.14,46.14,0,0,0-2.13,5.89c-4,18.29-14.67,28.93-33.77,31.24-9.92,1.19-19.64,4-29.45,6.12a288.2,288.2,0,0,0,48.8-3.75c4.62-.78,10.74-5.38,12.2-9.61C1020.3,989.88,1021,979.61,1022.8,969.71Z"/><path class="cls-2" d="M1085.79,1026.93c6.9-49.54,13.48-98.31,20.62-147,1.58-10.79,5.14-21.28,7.78-31.91,1.19-4.78,4.7-6.44,8.46-4.12q27,16.64,53.31,34.2c1.2.79,1.29,5.83,0,7.33-14.49,17.25-21.7,37.89-28.67,58.79-8.6,25.8-19.52,50.46-38.72,70.48C1102.62,1020.92,1096.12,1026.42,1085.79,1026.93Z"/><path class="cls-2" d="M1164.78,1070.77c2.83-1.61,6.25-5.06,8.34-4.38,2.87.93,5.89,4.64,6.81,7.76,5.44,18.48,3.26,36.55-5,53.74-1.42,2.93-5.22,6.23-8.12,6.42-2.49.17-5.25-3.87-7.61-7.17,6.56,4.58,10.11.76,12.47-4,7.21-14.41,8.94-29.58,4.34-45.13-1.46-4.91-4.15-9.23-11-4.82Z"/><path class="cls-2" d="M1265.19,1006.27c-26.39-16-54.35-22-83.4-28,9.73-23.92,19.07-47.19,39.32-63.72,9.59-7.83,32.57-8.36,41.91-1.4a6.6,6.6,0,0,1,2.08,4.71C1265.22,946.71,1265.19,975.62,1265.19,1006.27Z"/><path class="cls-2" d="M1022.8,969.71c-1.76,9.9-2.5,20.17-5.75,29.56-1.46,4.23-7.58,8.83-12.2,9.61a288.2,288.2,0,0,1-48.8,3.75c9.81-2.09,19.53-4.93,29.45-6.12,19.1-2.31,29.77-13,33.77-31.24a46.14,46.14,0,0,1,2.13-5.89Z"/><path class="cls-2" d="M784.08,1111.15s100.34,53.55,283,14.84l-12.6,42.43-26.25,13.52-132.45-4.17L829,1167l-40-11.34-10.74-29.23Z"/><path class="cls-3" d="M974.67,1273.45l1-165.8C975.71,1162.92,975.61,1218.19,974.67,1273.45Z"/><path class="cls-4" d="M719.19,707a10.72,10.72,0,0,1-2.74.45A4.22,4.22,0,0,1,719.19,707Z"/><rect class="cls-5" x="1304.93" y="1029.47" width="32.38" height="3.43" transform="translate(-76.94 1955.39) rotate(-71.44)"/><rect class="cls-5" x="1301.5" y="1020.22" width="20.73" height="3.43" transform="translate(-74.47 1940.31) rotate(-71.44)"/><rect class="cls-5" x="1302.25" y="1037.46" width="7.66" height="3.43" transform="translate(-94.76 1946.58) rotate(-71.44)"/><path class="cls-3" d="M1663.32,370.59h-6V355.11h6Z"/><path class="cls-3" d="M1669.78,411.23v-5.92a85.39,85.39,0,0,1,9.87.09c2.78.32,4.28,2.6,4.66,5.83Z"/><path class="cls-6" d="M658.83,789a58.6,58.6,0,0,0,7.17,1c-6,11.22-12.54,24.19-12.54,24.19h-5.94l1.81-3.89A146.4,146.4,0,0,1,658.83,789Z"/><path class="cls-6" d="M1078.08,542.23l-16.65,45.06q-14.45-.69-28.88-.19a422.62,422.62,0,0,0-125.65,24c-40.4,13.85-78.66,33.36-114.16,56.79Q773,681.22,754.47,696.15A37.43,37.43,0,0,0,750,687q18.69-16.6,38.84-31.72l-7.28-50,71.55-45.49,25.42,39.51A568.18,568.18,0,0,1,934,574.77l15.09-59,81.68-23.52,4.57,55.06Q1057,543.7,1078.08,542.23Z"/><path class="cls-6" d="M655.62,1270.45c11.44,10,35.08,25.64,48.09,33.48-3.36,1.42-11.59,3.94-20.14,10.65-4.23-3.42-17.23-13.07-21.23-16.7l-55,43.52-43.18-56.77,38.51-49.78s-12.82-18.5-18.2-30.25l14.43-7.09A80.74,80.74,0,0,0,612.64,1222c.2.33.38.66.58,1A251.83,251.83,0,0,0,655.62,1270.45Z"/><path class="cls-6" d="M1370.73,1236l-84.41,78.14-71.41-47.42a608.55,608.55,0,0,1-63.08,41.64l17,81.32-99.8,40.7-37.18-70.24A507.37,507.37,0,0,1,965,1375.25l-18.24,79.48h-93l-2.49-76.21c-12.94-1.36-38.72-5.65-50.93-8.16,0-11.58,0-23.57-7.29-34.56,28.63,3.45,74.06,3.91,102.68.81a459.18,459.18,0,0,0,123.86-31.78,503.8,503.8,0,0,0,111.43-63,544.86,544.86,0,0,0,93.13-88q14.38-17.22,27.28-35.7l72.11,62.9Z"/><path class="cls-6" d="M1531.45,801.76v96.51l-96.83,25.35a441.33,441.33,0,0,1-11.13,49.61l-94.66-39.32q.95-5.56,1.74-11.15c5.74-42.64,5-86.55-5.21-128.78s-30.16-82.25-59.19-114.71a261.59,261.59,0,0,0-67.6-54.12l25.17-67.22q13,4.07,25.58,9.11l66.08-55.25,71,39.4L1334,617.59a289.91,289.91,0,0,1,39.15,40l86.79-36.3,42.81,73.1-80.31,53.34A325,325,0,0,1,1436.49,807Z"/><path class="cls-6" d="M658.38,1267.18c32.4,26.61,71.22,44.78,111.86,54,40.64,9.51,83,10.56,124.33,5.33a448.12,448.12,0,0,0,120.25-33.11,530.67,530.67,0,0,0,198-148.88c52.93-64.09,90.54-141.75,101.72-223.93,5.76-40.93,5.21-82.94-4.21-123s-28-77.81-55.18-108.55S1193,634.67,1154.5,620s-80.16-21.15-121.66-20.57a411.62,411.62,0,0,0-122.7,21.27c-39.78,12.83-77.65,31.42-113.1,53.75a544.67,544.67,0,0,0-97.77,79c-7.29,7.29-14.14,15-21,22.6a10.42,10.42,0,0,0-.82,1c-9.64,14.11-18.91,36-19,36l2,.43c.07-.08,15.48-28.63,18.21-33.65a10.83,10.83,0,0,1,.91-1.4h0c.24-.32.5-.63.77-.93a499.37,499.37,0,0,1,70.84-64.76q5.63-4.24,11.37-8.32h0l.22-.15c45.27-32.17,96.52-57.06,151.06-70.95,192.93-49.14,360.38,58.69,351.52,258.08-9.5,213.67-212,407.42-424.33,417.25-58.36,2.7-109.68-9.4-151.57-32.34-28.49-15.62-47.23-24.62-84.45-81l-3.45,1.41a119.36,119.36,0,0,0,13.72,24.69A250.7,250.7,0,0,0,658.38,1267.18Z"/><path class="cls-2" d="M400.62,1194.61c10.54,2.57,21.21,2.91,31.57,2.26a260,260,0,0,0,30.28-4.16c10.65-2,21.19-3.26,31.66-6.91H379.78C386.21,1191.28,393.39,1192.85,400.62,1194.61Z"/><path class="cls-2" d="M545.38,1215.53q-51.57,26.79-100.75,57.78c-31.93,22-63.16,44.83-93,69.41,32.17-21.44,64.63-42.31,98-61.55,32.52-20.58,65.92-39.61,100-57.38,26.16-13.61,52.78-25.2,79.8-38H606.68C586,1194.93,565.55,1205,545.38,1215.53Z"/><path class="cls-2" d="M320.6,1190.53c-9.86,5.53-19.1,11.62-28.48,17.9s-18.3,13-27.06,20.18a260.27,260.27,0,0,0-25.14,22.82c10.19-5.16,19.9-10.94,29.45-16.9s18.92-12.16,28.24-18.41,17.92-12.78,26.92-19.53c8.91-6.59,18.31-13.36,25.62-20.79v-.17C341,1179.89,330.3,1185,320.6,1190.53Z"/><path class="cls-2" d="M815.74,879s-.89,3.28-2.36,8.86q-8.62-4.82-17.29-9.52c-34.78-18.78-70.31-36.57-107.76-47.74a239.88,239.88,0,0,0-57.12-10.05,176.38,176.38,0,0,0-23.67.57c2.1,0,3.83,0,5.15,0,0,0-33.7,1.59-74,21-19.9,10.56-38.31,24.31-55.05,39.63,8.08,2,16.28,3.72,24.47,5.32,12.23,2.34,24.55,4.31,36.93,5.75a337.53,337.53,0,0,0,37.34,2.37,176.89,176.89,0,0,0,37.32-3.45,179,179,0,0,1-37.17,6.93,338.6,338.6,0,0,1-38,1.1c-12.68-.28-25.34-1.12-38-2.36-11.52-1.15-22.91-2.58-34.44-4.5q-6,6.1-11.64,12.52c-.46.59-.93,1.18-1.38,1.78,0,0,122.67,31,237.8-9.88-.56,1.29-37,84.07-158.14,93.77-87.91,7-119.9-4-130.92-10.79-.32.57-.67,1.13-1,1.7a426.68,426.68,0,0,0-26.82,58.47,18,18,0,0,0-.5,5.92,12.59,12.59,0,0,0,2.84,7c3.32,4.11,9.88,6.74,16.81,8,14.14,2.55,29.73,1.32,44.9-.7a461.34,461.34,0,0,0,45.66-9.1l45.91-10.82c61.42-14.2,123.64-25.36,186.63-30.27,21.88-1.74,44.32-2.69,66.19-3l-2.6,14c-69.25,8.3-161.32,27.61-286.67,72.19-119.24,42.41-132.32-.53-132.32-.53s-.21-1.43-.4-3.76c-.1.51-.2,1-.29,1.5-2.45,14.72-3.51,29.88-1.36,44.14l.22,0a46.08,46.08,0,0,0,2,8.36,56.52,56.52,0,0,0,3.57,8.27,50.52,50.52,0,0,0,11,14c8.91,8,20.86,12.31,33.39,13.55s25.64-.11,38.45-2.84,25.66-6.92,38.41-11c51.07-16.93,101.71-36.22,153.24-52.72,41.48-13.39,87.08-26.33,129.66-35.75l-.43,4.18c-41.73,10.21-86.54,23.92-127.13,38-41.42,14.22-82.19,30.21-123.38,45.43,35.94-10,71.58-21.36,107.51-32.17,38.06-11.47,76.23-22.26,114.91-31.8,8.37-2.06,20.86-5.08,29.27-7L773.92,1105c-7.65,1.9-17.07,3.54-24.7,5.55-76.69,20-151.59,46.2-228.34,68-8.87,2.47-17.79,5.42-26.74,7.25H379.78a54.27,54.27,0,0,1-8.28-6.62c-8.17-7.76-13.84-18-17-28.27-.68-2.3-1.57-4.59-2.08-6.89-.68-2.24-.4-4.56-2.23-7.25v0c0-.89,1.83-1.76,0-2.63v-34c1.83-3.81,1.46-7.59,2-11.33,2.94-17.81,8.36-35.09,14.5-51.84a28.48,28.48,0,0,1,1.25-4l.23.1c.36-1,.7-1.9,1.07-2.83a435.65,435.65,0,0,1,25.91-54.66c19.76-35.09,43.57-68,72.6-96.38a308.12,308.12,0,0,1,47.6-37.77,215,215,0,0,1,55.51-25.62,184.82,184.82,0,0,1,60.87-7c20.47.93,40.52,5.23,59.79,11.26,38.61,12.21,74.21,30.87,108.94,50.32Q808.14,874.6,815.74,879Z"/><path class="cls-2" d="M773.75,1057.4l.17,0h0Z"/><path class="cls-2" d="M781.88,899.5c8.9,2.4,17.7,5.13,26.41,8.11-.47,1.86-1,3.78-1.45,5.75-8.66-3.42-17.42-6.61-26.27-9.5a285.74,285.74,0,0,0-30.27-8.42c-5.12-1.1-10.29-2-15.49-2.6a70.08,70.08,0,0,0-15.72-.56c10.45-1.8,21.19-.7,31.64.74A288,288,0,0,1,781.88,899.5Z"/><path class="cls-2" d="M722.23,958.08a29.12,29.12,0,0,0,6.44,9.52,17.26,17.26,0,0,0,10.86,4.95,17,17,0,0,0,11.19-3.79A29.89,29.89,0,0,0,758,960.2a49.71,49.71,0,0,0,6.22-20.68,49,49,0,0,0-2.6-21.35,28.88,28.88,0,0,0-5.66-9.52,16.69,16.69,0,0,0-10.37-5.42,17.62,17.62,0,0,0-11.62,3.27,29.59,29.59,0,0,0-8,8.43,47.15,47.15,0,0,0-6.94,21.2A46.37,46.37,0,0,0,722.23,958.08Z"/><path class="cls-2" d="M803.56,926.78h0c-4.11,17.06-8.43,36.15-11.51,52.78a13.3,13.3,0,0,1-4.46.6,15,15,0,0,1-9.84-4.67,25.09,25.09,0,0,1-5.48-8.22,40.35,40.35,0,0,1-2.75-18.87,40.9,40.9,0,0,1,5.93-18.22,25.63,25.63,0,0,1,6.81-7.29,15.35,15.35,0,0,1,10.57-3.14,14.52,14.52,0,0,1,9.22,5.13A22.73,22.73,0,0,1,803.56,926.78Z"/><path class="cls-2" d="M779.78,1131.29q-8.47,2.42-16.89,5c-45.39,13.79-89.93,31.25-133.42,49.53H606.68c49.82-21.93,101.09-42.51,153.51-58.42q6.57-2,13.15-3.91l.41,6.37Z"/><path class="cls-5" d="M1155.89,528l5,1.48c1,.29,1.41,1,1.18,1.79a1.43,1.43,0,0,1-2,.86l-10.12-3c-1-.29-1.42-1-1.18-1.79a1.41,1.41,0,0,1,2-.86C1152.46,526.93,1154.17,527.45,1155.89,528Z"/><path class="cls-5" d="M1137.28,536.93l5.29,1.56c-.28.94-.5,1.85-.82,2.73a1.25,1.25,0,0,1-1.52.85,24,24,0,0,1-2.89-.85,1.27,1.27,0,0,1-.85-1.59C1136.7,538.74,1137,537.87,1137.28,536.93Z"/><path class="cls-5" d="M1161.18,544l5.29,1.56c-.27.93-.49,1.85-.82,2.73a1.26,1.26,0,0,1-1.6.83,27.43,27.43,0,0,1-2.81-.83,1.27,1.27,0,0,1-.85-1.59C1160.6,545.8,1160.9,544.93,1161.18,544Z"/><path class="cls-5" d="M1153.45,535.89c-.86-.25-1.73-.49-2.58-.76a1.38,1.38,0,1,1,.8-2.64c1.72.49,3.44,1,5.15,1.52a1.36,1.36,0,0,1,1,1.74,1.39,1.39,0,0,1-1.8.9C1155.15,536.42,1154.3,536.15,1153.45,535.89Z"/><path class="cls-5" d="M1137,528.1l.74-2.51a41.07,41.07,0,0,1,4.17,1.27c1.14.49,1.49,1.64,1.25,3.06Z"/><path class="cls-5" d="M1165.34,536.45a2.74,2.74,0,0,1,3.56-1.76c1.1.31,2.2.64,3.34,1l-.76,2.59Z"/><path class="cls-5" d="M1124.32,469.73l85.22,24.9-24.9,85.22L1099.42,555ZM1166,485l-30.24-8.84a9.68,9.68,0,0,0-12.44,6.83q-8.85,30.22-17.67,60.47a9.68,9.68,0,0,0,6.83,12.44q30.23,8.85,60.46,17.67a9.69,9.69,0,0,0,12.45-6.83q8.83-30.22,17.66-60.47a10.79,10.79,0,0,0,.45-2.45,9.63,9.63,0,0,0-7.11-9.94Q1181.23,489.41,1166,485Z"/><path class="cls-7" d="M1166,485q15.2,4.44,30.39,8.88a9.63,9.63,0,0,1,7.11,9.94,10.79,10.79,0,0,1-.45,2.45q-8.82,30.24-17.66,60.47a9.69,9.69,0,0,1-12.45,6.83q-30.23-8.82-60.46-17.67a9.68,9.68,0,0,1-6.83-12.44q8.82-30.24,17.67-60.47a9.68,9.68,0,0,1,12.44-6.83Zm-22.54,77.07,30.07,8.79c4.38,1.28,8-.68,9.25-5.05l17.57-60.14c1.28-4.38-.68-7.95-5.08-9.24l-60-17.54c-4.45-1.3-8,.64-9.31,5.08L1108.39,544c-1.3,4.43.66,8,5.11,9.29Z"/><path class="cls-5" d="M1143.48,562.05l-30-8.76c-4.45-1.3-6.41-4.86-5.11-9.29L1125.93,484c1.3-4.44,4.86-6.38,9.31-5.08l60,17.54c4.4,1.29,6.36,4.86,5.08,9.24l-17.57,60.14c-1.28,4.37-4.87,6.33-9.25,5.05Zm.71-2.67,30.06,8.78c3,.88,5-.22,5.9-3.19l17.55-60.05c.86-2.95-.25-5-3.17-5.84l-60.12-17.57c-2.92-.85-5,.27-5.82,3.22q-8.77,30-17.54,60c-.87,3,.25,5,3.25,5.87Z"/><path class="cls-7" d="M1144.19,559.38l-29.89-8.74c-3-.88-4.12-2.9-3.25-5.87q8.76-30,17.54-60c.86-3,2.9-4.07,5.82-3.22l60.12,17.57c2.92.85,4,2.89,3.17,5.84L1180.15,565c-.86,3-2.9,4.07-5.9,3.19Zm.86-2.64,30,8.77c1.52.44,2,.16,2.47-1.36l17.52-60c.45-1.52.17-2-1.35-2.47l-60-17.52c-1.53-.45-2-.17-2.47,1.35q-8.76,30-17.53,60c-.44,1.53-.17,2,1.36,2.47Z"/><path class="cls-5" d="M1145.05,556.74l-30-8.76c-1.53-.44-1.8-.94-1.36-2.47q8.77-30,17.53-60c.44-1.52.94-1.8,2.47-1.35l60,17.52c1.52.45,1.8,1,1.35,2.47l-17.52,60c-.45,1.52-1,1.8-2.47,1.36Zm30.42-30c.91.26,1.71.51,2.51.73a2.78,2.78,0,0,0,3.63-2q.93-3.1,1.82-6.23a2.8,2.8,0,0,0-2-3.75l-2.43-.71c.17-.55.3-1,.42-1.43a8.24,8.24,0,0,0-5.54-10.14q-12.1-3.61-24.25-7.09a8.18,8.18,0,0,0-9.56,4.37c-.39.82-.66,1.7-1,2.62l-2.4-.7a2.78,2.78,0,0,0-3.65,2q-1,3.19-1.87,6.4a2.76,2.76,0,0,0,2,3.57c.82.26,1.64.49,2.53.75l-.29,1c-1.68,5.76-3.35,11.52-5,17.28-.4,1.35-.48,2.77.51,3.76s.8,2,.39,3.07c-.12.32-.2.66-.29,1a4.16,4.16,0,0,0,2.78,5.07c.83.27,1.66.5,2.49.74a4.19,4.19,0,0,0,5.45-3l.69-2.37,13.29,3.89c-.26.89-.52,1.74-.76,2.59a4.16,4.16,0,0,0,2.85,5.18c.85.27,1.71.52,2.57.75a4.16,4.16,0,0,0,5.23-2.89c.24-.77.43-1.56.7-2.32a.88.88,0,0,1,.53-.52,4.35,4.35,0,0,0,3.47-3.34q2.29-7.95,4.63-15.87Z"/><path class="cls-8" d="M1175.47,526.69l-.68,2.33q-2.32,7.93-4.63,15.87a4.35,4.35,0,0,1-3.47,3.34.88.88,0,0,0-.53.52c-.27.76-.46,1.55-.7,2.32a4.16,4.16,0,0,1-5.23,2.89c-.86-.23-1.72-.48-2.57-.75a4.16,4.16,0,0,1-2.85-5.18c.24-.85.5-1.7.76-2.59l-13.29-3.89-.69,2.37a4.19,4.19,0,0,1-5.45,3c-.83-.24-1.66-.47-2.49-.74a4.16,4.16,0,0,1-2.78-5.07c.09-.33.17-.67.29-1,.41-1.1.65-2-.39-3.07s-.91-2.41-.51-3.76c1.7-5.76,3.37-11.52,5-17.28l.29-1c-.89-.26-1.71-.49-2.53-.75a2.76,2.76,0,0,1-2-3.57q.92-3.21,1.87-6.4a2.78,2.78,0,0,1,3.65-2l2.4.7c.35-.92.62-1.8,1-2.62a8.18,8.18,0,0,1,9.56-4.37q12.15,3.48,24.25,7.09a8.24,8.24,0,0,1,5.54,10.14c-.12.44-.25.88-.42,1.43l2.43.71a2.8,2.8,0,0,1,2,3.75q-.89,3.12-1.82,6.23a2.78,2.78,0,0,1-3.63,2C1177.18,527.2,1176.38,527,1175.47,526.69Zm.81-12.69-34.48-10.08-4.62,15.83,34.47,10.07Zm-23.38,16.19c-1.71-.5-3.43-1-5.15-1.5a1.41,1.41,0,0,0-2,.86c-.23.81.21,1.5,1.19,1.79l10.13,3a1.42,1.42,0,0,0,2-.87c.23-.8-.21-1.49-1.19-1.78C1156.23,531.15,1154.56,530.67,1152.9,530.19Zm-18.59,9c-.27.94-.56,1.81-.77,2.7a1.27,1.27,0,0,0,.85,1.59,26.51,26.51,0,0,0,2.89.84,1.25,1.25,0,0,0,1.52-.85c.32-.88.54-1.8.81-2.73Zm23.93,7c-.28.94-.57,1.81-.78,2.7a1.27,1.27,0,0,0,.85,1.59,28.13,28.13,0,0,0,2.81.82,1.27,1.27,0,0,0,1.6-.83c.32-.88.54-1.8.81-2.73Zm-7.76-8.08c.86.25,1.71.52,2.58.75a1.38,1.38,0,1,0,.79-2.64q-2.56-.78-5.15-1.5a1.38,1.38,0,1,0-.79,2.64C1148.76,537.65,1149.62,537.88,1150.48,538.13Zm-14.16-25.79,1.92-6.57-2.53-.74-1.92,6.57Zm44.5,5.87-2.59-.76-1.9,6.53,2.58.75ZM1134,530.39l6.17,1.8c.24-1.42-.12-2.57-1.26-3.05a38.14,38.14,0,0,0-4.18-1.26Zm28.36,8.27,6.14,1.79.76-2.59c-1.15-.34-2.25-.67-3.35-1A2.75,2.75,0,0,0,1162.38,538.66Z"/><path class="cls-5" d="M1176.28,514l-4.63,15.82-34.47-10.07,4.62-15.83Z"/><path class="cls-5" d="M1180.82,518.21l-1.91,6.52-2.58-.75,1.9-6.53Z"/><path class="cls-2" d="M1195.36,622.43c-1.25-3.41-8-5.86-11-6.79l31.55-110.89c.13-.46-.33-1-1-1.21h0c-.7-.2-1.38,0-1.51.48L1209,519.43l-10.21-3-.49,1.68,10.22,3-4.45,15.67-10.33-3-.49,1.67,10.34,3-21.75,76.46a20.36,20.36,0,0,0-11.39.1,1.14,1.14,0,0,0-.94,1.43,2.46,2.46,0,0,0,1.74,1.44l0,0,21.71,5.94a2.47,2.47,0,0,0,1.9-.15A1,1,0,0,0,1195.36,622.43Zm-22.62-5.94a17,17,0,0,1,8.64.12l.76.25a2.33,2.33,0,0,0,.55.11c2.37.64,8.24,2.67,9.85,4.95Z"/><path class="cls-2" d="M1193.82,625a4.2,4.2,0,0,1-1.09-.15l-21.71-6a3.46,3.46,0,0,1-2.48-2.14,2.13,2.13,0,0,1,1.6-2.67,21.49,21.49,0,0,1,11-.36l21.22-74.56-10.35-3,1-3.59,10.32,3,3.91-13.74-10.23-3,1-3.6,10.2,3,4.11-14.45a1.68,1.68,0,0,1,.82-1,2.54,2.54,0,0,1,1.93-.16,2.13,2.13,0,0,1,1.73,2.44L1185.6,615c3.81,1.27,9.44,3.69,10.69,7.09h0a2,2,0,0,1-.89,2.48A3,3,0,0,1,1193.82,625Zm-.71-4a3.92,3.92,0,0,1,.25.32l1.05,1.49.95-.4-.94.34A4.7,4.7,0,0,0,1193.11,621Zm-14.42-3.93,7,1.92a33.44,33.44,0,0,0-3.18-1,3.33,3.33,0,0,1-.71-.16l-.71-.23A14.47,14.47,0,0,0,1178.69,617.09Zm3.87-1.15.18,0,.22,0,.25.07,31.69-111.42a1.06,1.06,0,0,0-.29-.15.84.84,0,0,0-.33,0Zm-10.27-.36c-.45.09-.85.19-1.2.29Zm42-111.29Z"/><path class="cls-2" d="M1067.6,586a2.48,2.48,0,0,0,1.52,1.14l21.53,6.57,0,0a2.46,2.46,0,0,0,2.24-.3,1.13,1.13,0,0,0,0-1.7,20.41,20.41,0,0,0-9.58-6.17l22.46-76.26,10.36,3,.48-1.68-10.35-3,4.6-15.62,10.24,2.94.48-1.68-10.22-2.93,4.52-15.38c.14-.46-.32-1-1-1.21h0c-.7-.2-1.38,0-1.51.47l-32.57,110.6c-3-.81-10-2.35-12.91-.14A1,1,0,0,0,1067.6,586Zm2.94-.26c2.58-1.06,8.62.36,11,1.08a1.71,1.71,0,0,0,.52.2l.78.2a16.9,16.9,0,0,1,7.36,4.52Z"/><path class="cls-2" d="M1091.61,594.9a4.49,4.49,0,0,1-1.18-.17l-21.6-6.59a3.48,3.48,0,0,1-2.12-1.65h0a2,2,0,0,1,.57-2.57c2.87-2.21,8.92-1.24,12.83-.28L1112.41,474a2.12,2.12,0,0,1,2.75-1.15,2.54,2.54,0,0,1,1.56,1.17,1.68,1.68,0,0,1,.15,1.29l-4.24,14.4,10.22,2.93-1,3.61-10.24-2.94-4,13.7,10.34,3-1,3.6-10.36-3-21.9,74.36a21.57,21.57,0,0,1,9.09,6.17,2.14,2.14,0,0,1-.07,3.12A3.12,3.12,0,0,1,1091.61,594.9Zm-.55-3.64.83.85C1091.65,591.85,1091.37,591.56,1091.06,591.26ZM1077.87,587l7,2.12a13.77,13.77,0,0,0-2.29-.87c-.24-.07-.48-.14-.73-.19a2.94,2.94,0,0,1-.68-.25C1080.21,587.52,1079.07,587.22,1077.87,587Zm3.68-1.15.25.08.2.08.16.07,32.74-111.17a.7.7,0,0,0-.29-.15.87.87,0,0,0-.34,0Zm-13.83.14-.12.07.13-.07Zm2.82-1.25a4.52,4.52,0,0,0-2,.79l-.2.12,1.86-.77A3.35,3.35,0,0,1,1070.54,584.72Zm44.42-110h0Z"/><path class="cls-2" d="M1337,1127.32l1.3-2.85,81.34,37.26c.68.24,5.14,1.66,6.86-2.46l0,0,14.45-31.54,2.85,1.3-14.44,31.52c-2.39,5.67-8.16,5.19-10.9,4.14l-.09,0Z"/><path class="cls-2" d="M1422.16,1166.29a11.7,11.7,0,0,1-4-.71l-.12,0-82.34-37.72,2.14-4.67,82.25,37.68c.62.22,4.16,1.31,5.51-1.94l14.91-32.53,4.66,2.14-14.85,32.42A8.35,8.35,0,0,1,1422.16,1166.29Zm-83.82-39.47,80.55,36.9c.26.1,7,2.58,9.59-3.61l14-30.64-1-.47-14,30.63c-1.6,3.84-5.38,4-8.13,3l-80.51-36.88Z"/><path class="cls-2" d="M1403.85,1116.17c5.17-1.7,8.73-8.57,8.76-8.64l2.8,1.42c-.17.33-4.17,8.09-10.58,10.2Z"/><path class="cls-2" d="M1404.19,1120.41l-1.6-4.88,1-.31c4.68-1.54,8-7.88,8.19-8.15l.45-.87,4.57,2.31-.45.89c-.18.35-4.37,8.47-11.16,10.7Zm.91-3.65.35,1.08c4.36-1.9,7.44-6.52,8.58-8.47l-1-.51C1411.9,1110.74,1409,1115,1405.1,1116.76Z"/><path class="cls-2" d="M1328.25,995.44l11.55-25.21,23.83,10.92-11.55,25.2Zm13.09-21.06-8.94,19.51,18.14,8.31,8.94-19.51Z"/><path class="cls-2" d="M1352.58,1007.68l-25.65-11.75,12.38-27L1365,980.65Zm-23-12.74,22,10.09,10.72-23.39-22-10.08Zm21.45,8.59-20-9.15,9.77-21.32,20,9.14Zm-17.3-10.13,16.32,7.47,8.1-17.69-16.32-7.47Z"/><path class="cls-2" d="M1268.91,1086.78l0-.06c.5-1.09,52.27-113,57-124.43,1.76-4.25,4.24-6.86,7.36-7.79a10.63,10.63,0,0,1,8.27,1.35c6.92,3.15,135.86,62,141.72,65.17,5.59,3,5.27,9.41,4.31,12.36l-.06.17-11.47,25-2.85-1.31,11.42-24.93c.22-.74,1.61-6.15-2.84-8.56-5.8-3.14-140.28-64.51-141.64-65.13l-.24-.13a7.54,7.54,0,0,0-5.75-1c-2.17.65-4,2.66-5.34,6-4.77,11.48-56.56,123.45-57.09,124.58a5.1,5.1,0,0,0-.09,3.7c.63,1.72,2.24,3.19,4.79,4.36l16.48,7.55-1.3,2.85-16.48-7.55c-3.38-1.55-5.55-3.64-6.46-6.21A8.32,8.32,0,0,1,1268.91,1086.78Z"/><path class="cls-2" d="M1292.13,1107.85l-17.39-8c-3.63-1.66-6-4-7-6.79a9.28,9.28,0,0,1,.24-6.73h0l0,0c.53-1.14,52.26-113,57-124.42,1.89-4.53,4.58-7.34,8-8.35a11.65,11.65,0,0,1,9,1.41c3.49,1.6,135.79,62,141.73,65.18,6.17,3.34,5.83,10.32,4.78,13.54l-.08.23-11.91,26-4.66-2.14,11.8-25.77c.29-1,1.25-5.37-2.37-7.33-4.49-2.43-91-42-141.42-65l-.48-.24a6.61,6.61,0,0,0-5-.92c-1.87.57-3.45,2.38-4.7,5.4-4.52,10.86-51.59,112.69-56.94,124.27l-.17.35a4.15,4.15,0,0,0-.06,2.93c.53,1.47,2,2.75,4.27,3.8l17.39,8Zm-23.22-21.07.91.42a7.35,7.35,0,0,0-.18,5.23c.82,2.32,2.82,4.21,5.93,5.64l15.58,7.13.47-1L1276,1097c-2.8-1.29-4.59-2.94-5.31-4.93a6,6,0,0,1,.14-4.49l.15-.32c5.35-11.58,52.41-113.37,56.91-124.19,1.49-3.6,3.5-5.81,6-6.55,3.38-1,6.59,1.11,6.62,1.13l.24.12c13.9,6.35,136,62.07,141.54,65.09,5.17,2.8,3.53,9,3.32,9.72l0,.13-11,24,1,.47,11.09-24.24c.85-2.62,1.16-8.4-3.85-11.11-5.93-3.21-140.31-64.52-141.67-65.14l-.12-.07a9.64,9.64,0,0,0-7.44-1.23c-2.83.84-5.09,3.26-6.73,7.21-4.77,11.47-56.51,123.35-57,124.47Z"/><path class="cls-2" d="M1440.45,1106l2.85,1.3-3.63,8,0,0c-1.06,2-1,3-.82,3.47a1.14,1.14,0,0,0,.48.65l.07,0h0l11,5c2.31,1.06,3.43.42,3.74.18l6-13.11,1.5.93c3.33,2,9.7,1.26,11.87.78l.68,3.06c-.34.08-7.48,1.62-12.61-.39l-4.8,10.46-.12.15c-.1.13-2.55,3.09-7.57.79l-11-5a4.2,4.2,0,0,1-2.16-2.38c-.6-1.66-.29-3.68,1-6Z"/><path class="cls-2" d="M1452.63,1129.18a9.57,9.57,0,0,1-4-1l-11-5a5.25,5.25,0,0,1-2.67-3c-.71-1.93-.38-4.23,1-6.84l4-8.76,4.68,2.13-4.1,9c-1,1.8-.79,2.56-.75,2.7a.14.14,0,0,1,0,.06l5.12,1.65-1.4.07,7.24,3.31a3.24,3.24,0,0,0,2.54.39l6.35-13.86,2.47,1.53c3,1.87,9.2,1.08,11.13.66l1-.22,1.11,5-1,.21c-.75.17-7.11,1.48-12.3-.13l-4.66,10A6.19,6.19,0,0,1,1452.63,1129.18Zm-15.86-9.84c0,.07,0,.14.07.2a3.25,3.25,0,0,0,1.63,1.82l11,5c4.3,2,6.3-.4,6.38-.5l0-.06,5.14-11.21.88.35c3.82,1.5,8.92.89,11,.53l-.25-1.11c-2.31.38-8.17,1-11.62-1.09l-.55-.34-5.64,12.31-.19.15c-.52.4-2,1.2-4.76-.06Zm4.18-12.06-3.18,7a8,8,0,0,0-1.15,4.26l1.14,0a6.66,6.66,0,0,1,1-3.68l3.22-7.06Z"/><rect class="cls-2" x="1441.76" y="1097.33" width="7.3" height="3.13" transform="translate(-155.63 1955.32) rotate(-65.39)"/><path class="cls-2" d="M1445.8,1104.19l-4.66-2.13,3.87-8.46,4.67,2.14Zm-2-3.12,1,.47,2.21-4.82-1-.47Z"/><path class="cls-2" d="M1461.46,1060a3.75,3.75,0,0,1,1.73-1.8c1.29-.63,2.9-.51,4.78.35l12.34,5.65.12.08a5.18,5.18,0,0,1,1.55,6.33c-.93,2.18-3.44,7.58-4.64,10.16,3.21,1.71,10.29,6.64,10.09,16.72,0,.4-.15,10.28-8.75,15.8l-1.69-2.64c7.13-4.58,7.31-13.12,7.31-13.2.21-10.77-9.48-14.42-9.58-14.46l-1.61-.58.73-1.55c0-.09,4.06-8.67,5.26-11.47a2,2,0,0,0-.41-2.48l-12-5.51c-1.34-.62-1.92-.46-2.07-.39a.58.58,0,0,0-.29.31l0,.19-.07.08-13.59,29.69-2.85-1.31,13.55-29.59C1461.35,1060.31,1461.39,1060.18,1461.46,1060Z"/><path class="cls-2" d="M1478.38,1114.7l-2.77-4.32.84-.54c6.59-4.23,6.84-12,6.85-12.38.19-10-8.55-13.36-8.93-13.5l-2.63-1,1.19-2.54c0-.08,4.06-8.66,5.24-11.44a1.13,1.13,0,0,0-.05-1.25l-11.88-5.44a4.07,4.07,0,0,0-1-.34l-.14.17-14,30.47-4.67-2.13,14-30.45c0-.12.1-.27.17-.43h0a4.68,4.68,0,0,1,2.2-2.28c1.58-.78,3.47-.66,5.63.33l12.62,5.83a6.17,6.17,0,0,1,1.9,7.54c-.78,1.83-2.68,5.93-4.26,9.35a19.12,19.12,0,0,1,9.79,17.15c0,.42-.15,10.81-9.21,16.62Zm0-3.74.61,1c7.33-5.31,7.46-14,7.46-14.39.19-9.59-6.63-14.27-9.56-15.83l-.84-.45.4-.86c1.65-3.54,3.79-8.17,4.63-10.13a4.17,4.17,0,0,0-1.21-5.12l0,0-12.26-5.61a4.59,4.59,0,0,0-3.92-.36,2.74,2.74,0,0,0-1.26,1.32h0c0,.11-.08.2-.11.27l0,.11-13.14,28.68,1,.47,13.26-29a1.61,1.61,0,0,1,.82-.88c.47-.21,1.35-.31,2.89.4l12.28,5.67a3,3,0,0,1,.65,3.62c-1.21,2.85-5.23,11.42-5.27,11.5l-.26.56.58.21c.11,0,10.46,4,10.24,15.42C1485.29,1097.86,1485,1106.06,1478.36,1111Z"/><path class="cls-2" d="M1460.56,1094.71a8.55,8.55,0,1,1,4.21,11.34A8.55,8.55,0,0,1,1460.56,1094.71Zm12.7,5.82a5.42,5.42,0,1,0-7.19,2.67A5.43,5.43,0,0,0,1473.26,1100.53Z"/><path class="cls-2" d="M1468.32,1107.83a9.56,9.56,0,0,1-8.67-13.54h0a9.55,9.55,0,1,1,12,12.93A9.71,9.71,0,0,1,1468.32,1107.83Zm-6.85-12.7a7.56,7.56,0,0,0,3.72,10,7.55,7.55,0,1,0,6.28-13.73,7.55,7.55,0,0,0-10,3.72Zm6.85,9.56a6.35,6.35,0,0,1-2.66-.58,6.42,6.42,0,0,1-3.34-3.6,6.34,6.34,0,0,1,.18-4.91,6.41,6.41,0,1,1,11.66,5.34,6.44,6.44,0,0,1-5.84,3.75Zm0-10.84a4.41,4.41,0,0,0-4.15,6,4.42,4.42,0,0,0,8.16.3h0a4.42,4.42,0,0,0-4-6.26Z"/><polygon class="cls-2" points="1433.12 1043.01 1444.49 1018.19 1469.09 1029.46 1457.71 1054.28 1453.32 1052.27 1454.62 1049.42 1456.17 1050.13 1464.93 1031 1446.04 1022.34 1437.27 1041.47 1442.56 1043.89 1441.26 1046.74 1433.12 1043.01"/><path class="cls-2" d="M1458.21,1055.61l-6.22-2.85,2.14-4.67,1.55.71,7.93-17.31-17.08-7.82L1438.6,1041l5.29,2.42-2.14,4.67-10-4.56,12.21-26.65,26.41,12.1Zm-3.57-3.84,2.58,1.19,10.54-23L1445,1019.51l-10.54,23,6.33,2.9.47-1L1436,1042l9.59-20.94,20.72,9.49-9.59,20.94-1.56-.71Z"/><polygon class="cls-2" points="1440.97 1034.83 1451.69 1030.77 1452.8 1033.7 1444.98 1036.66 1450.78 1052.41 1447.84 1053.49 1440.97 1034.83"/><path class="cls-2" d="M1447.24,1054.78l-7.55-20.54,12.58-4.76,1.82,4.8-7.83,3,5.8,15.77Zm-5-19.37,6.18,16.8,1.06-.39-5.79-15.75,7.81-3-.4-1.06Z"/><polygon class="cls-2" points="1362.43 1010.63 1373.81 985.81 1398.4 997.08 1387.03 1021.9 1382.63 1019.88 1383.93 1017.04 1385.49 1017.75 1394.25 998.62 1375.35 989.96 1366.59 1009.09 1371.88 1011.51 1370.57 1014.36 1362.43 1010.63"/><path class="cls-2" d="M1387.52,1023.23l-6.22-2.85,2.14-4.67,1.55.71,7.93-17.31-17.08-7.82-7.93,17.31,5.29,2.42-2.13,4.67-10-4.56,12.2-26.65,26.42,12.1Zm-3.56-3.84,2.58,1.19,10.54-23-22.78-10.44-10.54,23,6.32,2.9.47-1-5.29-2.43,9.6-20.94,20.71,9.49-9.59,20.94-1.55-.71Z"/><polygon class="cls-2" points="1370.28 1002.45 1381 998.39 1382.11 1001.32 1374.3 1004.28 1380.09 1020.03 1377.15 1021.11 1370.28 1002.45"/><path class="cls-2" d="M1376.56,1022.4l-7.56-20.54,12.58-4.76,1.82,4.8-7.82,3,5.8,15.76Zm-5-19.37,6.18,16.8,1.07-.39-5.8-15.75,7.81-3-.4-1.06Z"/><path class="cls-2" d="M1398.76,1027.74l11.55-25.21,23.83,10.92-11.55,25.2Zm13.09-21.06-8.94,19.51,18.14,8.31L1430,1015Z"/><path class="cls-2" d="M1423.08,1040l-25.65-11.75,12.38-27,25.65,11.75Zm-23-12.74,22,10.09,10.71-23.39-22-10.09Zm21.46,8.59-20-9.15,9.77-21.32,20,9.14Zm-17.3-10.13,16.32,7.47,8.1-17.69-16.32-7.47Z"/><rect class="cls-2" x="1317.26" y="1031.02" width="29.54" height="3.13" transform="translate(-161.5 1813.55) rotate(-65.39)"/><path class="cls-2" d="M1327.8,1048l-4.67-2.14,13.14-28.68,4.67,2.14Zm-2-3.13,1,.48,11.48-25-1-.47Z"/><rect class="cls-2" x="1315.07" y="1021.74" width="18.91" height="3.13" transform="translate(-157.44 1801.31) rotate(-65.39)"/><path class="cls-2" d="M1322.51,1033.88l-4.67-2.14,8.71-19,4.67,2.14Zm-2-3.12,1,.47,7-15.38-1-.47Z"/><rect class="cls-2" x="1314.12" y="1036.82" width="6.99" height="3.13" transform="matrix(0.42, -0.91, 0.91, 0.42, -175.19, 1803.83)"/><path class="cls-2" d="M1318.08,1043.55l-4.66-2.14,3.74-8.18,4.67,2.14Zm-2-3.13,1,.48,2.08-4.55-1-.47Z"/><path class="cls-2" d="M1352.69,1071.88a39.13,39.13,0,0,1,3.8-6.67,39.77,39.77,0,0,1,11.94-9.46c7-3.68,18.31-6.9,32.44-1.35l.08,0a41.84,41.84,0,0,1,13.72,11.15c5.61,7,11,19.07,5.07,36.44l-3-1c4.41-12.82,2.9-24-4.48-33.37a39.22,39.22,0,0,0-12.63-10.33c-24.88-9.74-40.54,9.63-40.7,9.82a41.86,41.86,0,0,0-6,13.36,31.37,31.37,0,0,0,6.11,28.33c6.65,8.39,15.09,12.77,25.07,13a35.43,35.43,0,0,0,13.23-2.22l1.23,2.88a37.65,37.65,0,0,1-14.4,2.47c-7.57-.15-18.5-2.73-27.59-14.19a34.86,34.86,0,0,1-6.66-31.14A44.84,44.84,0,0,1,1352.69,1071.88Z"/><path class="cls-2" d="M1385,1126h-.76c-7.78-.15-19-2.8-28.35-14.57a35.82,35.82,0,0,1-6.85-32,46.6,46.6,0,0,1,2.79-7.91h0a40,40,0,0,1,3.91-6.84,40.68,40.68,0,0,1,12.28-9.75c7.18-3.78,18.78-7.09,33.26-1.4l.11,0a42.62,42.62,0,0,1,14.11,11.45c5.77,7.23,11.36,19.58,5.24,37.38l-.33,1-4.85-1.67.33-.94c4.29-12.48,2.83-23.39-4.33-32.43a38.45,38.45,0,0,0-12.27-10c-24-9.4-39.33,9.35-39.49,9.55a41.17,41.17,0,0,0-5.81,13,30.41,30.41,0,0,0,5.92,27.46c6.46,8.16,14.64,12.4,24.31,12.63a34.47,34.47,0,0,0,12.82-2.14l.92-.38,2,4.7-.92.4A38.63,38.63,0,0,1,1385,1126Zm-31.35-53.65a43.94,43.94,0,0,0-2.67,7.56,33.86,33.86,0,0,0,6.48,30.27c8.84,11.16,19.47,13.67,26.82,13.81a37.68,37.68,0,0,0,13.06-2l-.45-1.05a38.23,38.23,0,0,1-12.71,2c-10.3-.24-19-4.74-25.84-13.38a32.35,32.35,0,0,1-6.29-29.19,42.1,42.1,0,0,1,6.17-13.71c.17-.23,16.27-20.18,41.87-10.16a39.86,39.86,0,0,1,13,10.64c7.43,9.37,9.09,20.6,5,33.37l1.08.37c5.31-16.44.12-27.83-5.23-34.54a40.46,40.46,0,0,0-13.36-10.87c-13.8-5.42-24.82-2.28-31.63,1.3a38.87,38.87,0,0,0-11.63,9.19,39.4,39.4,0,0,0-3.67,6.47Z"/><path class="cls-2" d="M1343.81,1069a45.9,45.9,0,1,1,22.61,60.84A46,46,0,0,1,1343.81,1069Zm80.6,36.93a42.76,42.76,0,1,0-56.69,21.06A42.81,42.81,0,0,0,1424.41,1105.89Z"/><path class="cls-2" d="M1385.46,1135a46.89,46.89,0,0,1-42.56-66.42h0a46.9,46.9,0,1,1,42.56,66.42Zm.14-91.8a45.11,45.11,0,0,0-40.88,26.21h0a44.86,44.86,0,1,0,40.88-26.21Zm-.13,88.68a43.74,43.74,0,1,1,39.85-25.55h0a43.94,43.94,0,0,1-39.85,25.55Zm.12-85.54A42.05,42.05,0,0,0,1371,1049a41.74,41.74,0,1,0,52.51,56.52h0a41.77,41.77,0,0,0-37.91-59.16Z"/><path class="cls-2" d="M1277.8,1120.92a19.43,19.43,0,0,1,5.71-6.9l.17-.12.19-.08,27.69-10.46,1.11,2.93-27.48,10.38c-.86.68-5.12,4.24-5.35,8.66-.13,2.54,1.14,5,3.76,7.38l.08.08c.17.16,4.65,4.37,14.58-.67l.16-.07,48.92-18.37c-2.19-3-6.38-9.76-7.17-17.44l-19.68,7.48-1.11-2.93,23.4-9.07.39,2.28c.13,10.07,7.82,19.31,7.9,19.4l1.15,1.8-1.8.68L1299.6,1135c-11.61,5.85-17.48.68-18.12.06-3.35-3-5-6.34-4.77-9.87A11.73,11.73,0,0,1,1277.8,1120.92Z"/><path class="cls-2" d="M1289.42,1138.71a12.53,12.53,0,0,1-8.63-3c-3.56-3.2-5.28-6.79-5.08-10.64a12.72,12.72,0,0,1,1.18-4.59h0a20.43,20.43,0,0,1,6-7.29l.4-.25.2-.07,28.62-10.82,1.82,4.81-28.27,10.67c-1,.81-4.65,4-4.85,7.83-.11,2.23,1,4.44,3.43,6.59l.1.1c.17.16,4.17,3.86,13.44-.84l.2-.09,47.78-17.94a39.41,39.41,0,0,1-6.46-15.57l-19.41,7.38-1.83-4.79,25.47-9.88.61,3.64c.12,9.67,7.59,18.69,7.66,18.77l.08.11,1.83,2.84L1300,1135.87A23.51,23.51,0,0,1,1289.42,1138.71Zm-10.71-17.37a10.52,10.52,0,0,0-1,3.86c-.17,3.22,1.33,6.27,4.44,9.08.61.58,6,5.32,17-.22l.1,0,51.46-19.32-.45-.71c-.64-.79-7.92-9.92-8.09-19.9l-.17-1-21.33,8.28.4,1.06,20-7.59.13,1.3c.76,7.35,4.71,13.78,7,17l.77,1.06L1298.66,1133c-10.51,5.33-15.47.66-15.68.46l-.07-.07c-2.84-2.54-4.21-5.29-4.07-8.15.25-4.86,4.82-8.68,5.74-9.4l.26-.14,26.54-10-.4-1.06-26.89,10.18a18.59,18.59,0,0,0-5.38,6.51Z"/><path class="cls-2" d="M705.44,1444.74c-36.26-10.13-57.77-47-48-82.15s47.31-55.54,83.57-45.41,57.78,47,48,82.14S741.71,1454.86,705.44,1444.74Zm34.72-124.31c-34.48-9.63-70.11,9.69-79.43,43.07s11.14,68.36,45.62,78,70.1-9.7,79.42-43.07S774.63,1330.05,740.16,1320.43Z"/><path class="cls-2" d="M724.31,1448.33a70.91,70.91,0,0,1-19.14-2.63h0c-36.79-10.28-58.62-47.68-48.65-83.38s48-56.38,84.81-46.1S800,1363.9,790,1399.59C781.75,1429.09,754.34,1448.33,724.31,1448.33Zm-18.6-4.56c35.73,10,72.67-10.08,82.35-44.71s-11.53-70.94-47.27-80.92-72.67,10.08-82.34,44.72,11.53,70.93,47.26,80.91Zm18.6,1.19a67.71,67.71,0,0,1-18.23-2.51c-35-9.77-55.78-45.31-46.31-79.22s45.65-53.54,80.66-43.77A66.59,66.59,0,0,1,780.25,1350a62.46,62.46,0,0,1,6.49,48.68C778.91,1426.69,752.87,1445,724.31,1445Zm-2.12-126c-27.68,0-52.92,17.69-60.49,44.82-9.18,32.84,11,67.28,44.92,76.76s69-9.54,78.19-42.38a60.46,60.46,0,0,0-6.29-47.13,64.53,64.53,0,0,0-38.63-29.63A65.78,65.78,0,0,0,722.19,1319Z"/><path class="cls-2" d="M754.31,1403.53a14.33,14.33,0,0,0-13.36-9.7l-7.37-13.09-2.77,1.55,5,8.79a2.61,2.61,0,0,1-3,3.79,2.57,2.57,0,0,1-1.56-1.23l-5-8.8-2.77,1.56,6.74,12a14.35,14.35,0,0,0,7.67,23.91l-3.71-10.86a2.85,2.85,0,0,1,1.78-3.62l8.23-2.81a2.87,2.87,0,0,1,3.63,1.76l3.7,10.86A14.33,14.33,0,0,0,754.31,1403.53Zm-35.37-40.77a2.58,2.58,0,0,1,1.56,1.23l5.53,9.81,2.76-1.55-7.17-12.73a14.36,14.36,0,0,0-8-23.72l3.82,10.82a2.86,2.86,0,0,1-1.74,3.64l-8.21,2.9a2.85,2.85,0,0,1-3.64-1.74L700,1340.59a14.36,14.36,0,0,0,11,23.69l7.68,13.63,2.78-1.55-5.53-9.81a2.61,2.61,0,0,1,3-3.79Z"/><path class="cls-2" d="M719.64,1390.93a1.22,1.22,0,0,1-1.68-.47l-5.58-9.9a1.24,1.24,0,0,1,.47-1.68l.53-.3a1.23,1.23,0,0,1,1.69.47l5.58,9.9a1.23,1.23,0,0,1-.48,1.68Z"/><path class="cls-2" d="M715.73,1391.69l-22.05,13.72-2.72,1.68a6.63,6.63,0,0,1-2.61.85,6.08,6.08,0,0,1-2-.07,5,5,0,0,1-.65-.14,6.91,6.91,0,0,1-1.53-12.69l2.83-1.44,23.17-11.77Z"/><path class="cls-2" d="M761.36,1362l-4.62,4.16-3.19.42L720.89,1385l-2.28-4,32.67-18.41,2-2.49,6-1.81.2.35-4.6,2.07c-.84.47-.93,2-.47,2.8s1.82,1.64,2.67,1.16l4.12-3Z"/><path class="cls-2" d="M742.74,708.92c-.54.56-1.11,1.1-1.72,1.62h0c-17.52,14.76-43.44,38.34-67.52,66.82A21.47,21.47,0,0,1,658.24,785a21.21,21.21,0,0,1-15.86-5.64L642,779l-.06-.09c-.1-.13-9.62-13.08,1.44-25.29-2.68-2.56-9.74-10.24-10.79-21.38-.85-9,2.48-18.09,9.88-26.94l0,0h0c.32-.34,14.36-14.78,32.13-8.16,1.34-3.66,5.79-13.74,15.27-17.34,6.82-2.59,14.69-1.23,23.41,4,2.1-1.78,8.36-6.43,16-6,5.38.28,10.28,3,14.56,8.08.85.75,6.26,5.94,3.59,15A19.87,19.87,0,0,1,742.74,708.92Zm-3.37-.33a17.62,17.62,0,0,0,5.65-8.46c2.35-8-2.65-12.23-2.86-12.41l-.09-.07-.08-.09c-3.82-4.57-8.12-7-12.79-7.26-8.12-.43-14.8,5.93-14.86,6l-.72.7-.85-.53c-8.33-5.24-15.71-6.7-21.95-4.33-10.23,3.87-14.14,16.87-14.18,17l-.41,1.38-1.32-.56c-16.64-7.09-29.7,6.16-30.54,7-6.93,8.3-10,16.72-9.27,25,1.18,12.47,10.79,20.48,10.89,20.56l1.09.89-1,1-.4.41c-9.95,10.42-2.62,21.28-1.79,22.43l.22.21a18.69,18.69,0,0,0,14,5,19,19,0,0,0,13.47-6.78c24.19-28.62,50.23-52.3,67.82-67.12Z"/><path class="cls-2" d="M656.88,786.08a22.19,22.19,0,0,1-15.18-6l-.59-.59c-.1-.14-9.74-13.24.87-25.85-3.26-3.28-9.42-10.77-10.41-21.33-.88-9.31,2.52-18.62,10.11-27.68l.15-.16h0c1.49-1.51,14.93-14.49,32.22-8.69,1.81-4.57,6.41-13.56,15.5-17,7-2.64,14.91-1.37,23.67,3.76,2.72-2.19,8.79-6.2,16.15-5.81,5.65.29,10.77,3.11,15.23,8.38,1.26,1.13,6.6,6.6,3.83,16a20.9,20.9,0,0,1-5,8.48h0a22.29,22.29,0,0,1-1.8,1.69C724.18,726,698.29,749.58,674.26,778a22.48,22.48,0,0,1-16,8C657.83,786.06,657.35,786.08,656.88,786.08Zm-14.16-7.74.34.32A20.27,20.27,0,0,0,658.18,784a20.5,20.5,0,0,0,14.55-7.32c24.13-28.54,50.1-52.16,67.64-67a22.06,22.06,0,0,0,1.65-1.54h0a19,19,0,0,0,4.49-7.66c2.47-8.38-2.31-13.12-3.29-14l-.1-.11c-4.1-4.86-8.76-7.46-13.85-7.73-7.21-.37-13.11,3.94-15.31,5.8l-.55.47-.62-.37c-8.44-5.11-16-6.44-22.53-4-9,3.41-13.26,12.85-14.69,16.75l-.34,1-.94-.35c-17.14-6.38-30.93,7.77-31.07,7.91-7.24,8.65-10.48,17.46-9.66,26.22,1,10.68,7.66,18.06,10.48,20.74l.71.67-.66.73c-10.44,11.53-1.47,23.9-1.38,24Zm14.16,5.18a19.67,19.67,0,0,1-13.45-5.27l-.36-.36c-.91-1.27-8.61-12.73,1.89-23.71.13-.14.27-.29.42-.43l.21-.22-.23-.19c-.1-.08-10-8.36-11.25-21.23-.81-8.59,2.39-17.26,9.5-25.77.62-.65,14.33-14.71,31.69-7.31l.29.12.09-.3c0-.13,4.07-13.6,14.78-17.66,6.55-2.48,14.24-1,22.84,4.42l.18.12.16-.16c.07-.06,7.08-6.72,15.62-6.26,5,.26,9.49,2.82,13.5,7.61l0,0c.23.19,5.71,4.88,3.18,13.45a18.65,18.65,0,0,1-6,8.94h0c-17.56,14.8-43.56,38.44-67.71,67a20,20,0,0,1-14.17,7.13Zm-12.24-6.88.15.14A17.73,17.73,0,0,0,658,781.49a18.08,18.08,0,0,0,12.77-6.42c24.24-28.68,50.32-52.4,67.94-67.25h0a16.67,16.67,0,0,0,5.33-8c2.16-7.33-2.35-11.2-2.54-11.36l-.29-.28c-3.64-4.35-7.7-6.67-12.08-6.91-7.61-.4-14.06,5.65-14.12,5.72l-1.28,1.23-1.51-.94c-8-5.07-15.14-6.5-21.07-4.25-9.72,3.68-13.53,16.23-13.57,16.35l-.72,2.46-2.36-1c-16.11-6.86-28.89,6.24-29.42,6.8-6.71,8-9.76,16.21-9,24.25,1.13,12,10.43,19.8,10.52,19.87l2,1.6-1.78,1.77-.39.4C637.21,765.18,643.62,775.18,644.64,776.64Z"/></g></g></svg>